<?xml version="1.0" encoding="UTF-8" standalone="no"?>
<!-- Created with Inkscape (http://www.inkscape.org/) -->

<svg
   xmlns:dc="http://purl.org/dc/elements/1.1/"
   xmlns:cc="http://creativecommons.org/ns#"
   xmlns:rdf="http://www.w3.org/1999/02/22-rdf-syntax-ns#"
   xmlns:svg="http://www.w3.org/2000/svg"
   xmlns="http://www.w3.org/2000/svg"
   xmlns:sodipodi="http://sodipodi.sourceforge.net/DTD/sodipodi-0.dtd"
   xmlns:inkscape="http://www.inkscape.org/namespaces/inkscape"
   width="72.528"
   height="72.528"
   viewBox="0 0 72.528001 72.528001"
   id="svg5347"
   version="1.1"
   inkscape:version="0.91 r13725"
   inkscape:export-filename="/home/kmurarka/app/code/images/ask"
   inkscape:export-xdpi="90"
   inkscape:export-ydpi="90"
   sodipodi:docname="a.svg">
  <defs
     id="defs5349" />
  <sodipodi:namedview
     id="base"
     pagecolor="#ffffff"
     bordercolor="#666666"
     borderopacity="1.0"
     inkscape:pageopacity="0.0"
     inkscape:pageshadow="2"
     inkscape:zoom="1.4"
     inkscape:cx="39.183725"
     inkscape:cy="74.672903"
     inkscape:document-units="px"
     inkscape:current-layer="layer1"
     showgrid="false"
     units="px"
     inkscape:window-width="1366"
     inkscape:window-height="704"
     inkscape:window-x="0"
     inkscape:window-y="27"
     inkscape:window-maximized="1" />
  <metadata
     id="metadata5352">
    <rdf:RDF>
      <cc:Work
         rdf:about="">
        <dc:format>image/svg+xml</dc:format>
        <dc:type
           rdf:resource="http://purl.org/dc/dcmitype/StillImage" />
        <dc:title></dc:title>
      </cc:Work>
    </rdf:RDF>
  </metadata>
  <g
     inkscape:label="Layer 1"
     inkscape:groupmode="layer"
     id="layer1"
     transform="translate(0,-979.83416)">
    <path
       inkscape:connector-curvature="0"
       d="m 68.90153,994.33983 -7.25279,0 0,32.63757 -47.143154,0 0,7.2528 c 0,1.9945 1.63188,3.6264 3.626395,3.6264 l 39.890369,0 14.50557,14.5056 0,-54.39596 c 0,-1.99453 -1.63188,-3.62641 -3.62639,-3.62641 z m -14.50558,21.75837 0,-32.63756 c 0,-1.99451 -1.63188,-3.62639 -3.62641,-3.62639 l -47.143145,0 C 1.63188,979.83425 0,981.46613 0,983.46064 l 0,50.76956 14.505586,-14.5056 36.263954,0 c 1.99453,0 3.62641,-1.6319 3.62641,-3.6264 z"
       id="path6"
       style="fill:#ffffff" />
  </g>
</svg>
