<?xml version="1.0" encoding="UTF-8" standalone="no"?>
<!-- Created with Inkscape (http://www.inkscape.org/) -->

<svg
   xmlns:dc="http://purl.org/dc/elements/1.1/"
   xmlns:cc="http://creativecommons.org/ns#"
   xmlns:rdf="http://www.w3.org/1999/02/22-rdf-syntax-ns#"
   xmlns:svg="http://www.w3.org/2000/svg"
   xmlns="http://www.w3.org/2000/svg"
   xmlns:sodipodi="http://sodipodi.sourceforge.net/DTD/sodipodi-0.dtd"
   xmlns:inkscape="http://www.inkscape.org/namespaces/inkscape"
   width="44.53183mm"
   height="13.720168mm"
   viewBox="0 0 157.78995 48.614769"
   id="svg4170"
   version="1.1"
   inkscape:version="0.91 r13725"
   sodipodi:docname="ask_logo.svg">
  <defs
     id="defs4172" />
  <sodipodi:namedview
     id="base"
     pagecolor="#ffffff"
     bordercolor="#666666"
     borderopacity="1.0"
     inkscape:pageopacity="0.0"
     inkscape:pageshadow="2"
     inkscape:zoom="1.4"
     inkscape:cx="32.099754"
     inkscape:cy="-3.6026507"
     inkscape:document-units="px"
     inkscape:current-layer="layer1"
     showgrid="false"
     fit-margin-top="0"
     fit-margin-left="0"
     fit-margin-right="0"
     fit-margin-bottom="0"
     inkscape:window-width="1366"
     inkscape:window-height="704"
     inkscape:window-x="0"
     inkscape:window-y="27"
     inkscape:window-maximized="1" />
  <metadata
     id="metadata4175">
    <rdf:RDF>
      <cc:Work
         rdf:about="">
        <dc:format>image/svg+xml</dc:format>
        <dc:type
           rdf:resource="http://purl.org/dc/dcmitype/StillImage" />
        <dc:title />
      </cc:Work>
    </rdf:RDF>
  </metadata>
  <g
     inkscape:label="Layer 1"
     inkscape:groupmode="layer"
     id="layer1"
     transform="translate(528.50538,-570.91196)">
    <g
       style="font-style:normal;font-weight:normal;font-size:61.5200386px;line-height:125%;font-family:sans-serif;letter-spacing:0px;word-spacing:0px;fill:#e59728;fill-opacity:1;stroke:none;stroke-width:1px;stroke-linecap:butt;stroke-linejoin:miter;stroke-opacity:1"
       id="text4783">
      <path
         d="m -511.6835,592.16113 q -2.22289,0 -4.14539,0.84109 -1.9225,0.8411 -3.33434,2.28297 -1.41183,1.41184 -2.25293,3.33434 -0.81105,1.9225 -0.81105,4.08532 0,2.16281 0.81105,4.08531 0.8411,1.9225 2.25293,3.36438 1.41184,1.41184 3.33434,2.25293 1.9225,0.8411 4.14539,0.8411 2.19286,0 4.11536,-0.8411 1.9225,-0.84109 3.33434,-2.28297 1.44187,-1.44187 2.25293,-3.33434 0.84109,-1.9225 0.84109,-4.08531 0,-2.16282 -0.84109,-4.05528 -0.81106,-1.9225 -2.25293,-3.36438 -1.41184,-1.44187 -3.33434,-2.28297 -1.9225,-0.84109 -4.11536,-0.84109 z m 10.54372,24.24154 0,-0.60078 q -2.25293,1.80234 -4.89637,2.76359 -2.64344,0.96125 -5.64735,0.96125 -6.96906,0 -11.89547,-4.92641 -4.92641,-4.92641 -4.92641,-11.89547 0,-6.96907 4.92641,-11.89548 4.92641,-4.92641 11.89547,-4.92641 6.90899,0 11.89548,4.92641 4.92641,4.92641 4.92641,11.89548 l 0,13.69782 q 0,1.29168 -0.93121,2.22289 -0.90117,0.90117 -2.19286,0.90117 -1.32171,0 -2.25293,-0.90117 -0.90117,-0.93121 -0.90117,-2.22289 z"
         style="font-style:normal;font-variant:normal;font-weight:bold;font-stretch:normal;font-family:Comfortaa;-inkscape-font-specification:'Comfortaa Bold';fill:#e59728;fill-opacity:1"
         id="path4141" />
      <path
         d="m -483.92739,603.5159 q -2.82367,-1.0814 -3.96515,-2.22289 l 0.03,0 q -2.28297,-2.31301 -2.28297,-5.43707 0,-2.28297 1.20157,-4.11536 1.2316,-1.86242 3.18414,-3.1541 1.95254,-1.29168 4.38571,-1.98258 2.4632,-0.72094 4.92641,-0.72094 7.50977,0 12.88676,6.03786 0.63082,0.78101 0.63082,1.89246 0,1.35176 -0.90117,2.25293 -0.87113,0.87113 -2.22289,0.87113 -0.96125,0 -1.65215,-0.5407 -0.66086,-0.5407 -1.29168,-1.17152 -3.06399,-3.06399 -7.44969,-3.06399 -4.32563,0 -6.90899,2.64344 -0.48063,0.48062 -0.48063,1.32172 0,0.84109 0.78102,1.14148 l 14.05829,4.62602 q 2.94383,1.14149 3.96516,2.22289 l -0.03,0 q 2.28297,2.31301 2.28297,5.43708 0,2.31301 -1.2316,4.14539 -1.20157,1.83239 -3.15411,3.15411 -1.95254,1.29168 -4.3857,1.98257 -2.43317,0.6909 -4.89637,0.6909 -7.56985,0 -12.88677,-5.97777 -0.66086,-0.87114 -0.66086,-1.95254 0,-1.35176 0.87113,-2.2229 0.90118,-0.90117 2.25293,-0.90117 0.99129,0 1.68219,0.60078 0.6909,0.57075 1.26164,1.11145 3.06399,3.06399 7.47974,3.06399 4.29558,0 6.90898,-2.70352 0.45059,-0.51067 0.45059,-1.2316 0,-0.8411 -0.81105,-1.17153 l -14.02826,-4.62602 z"
         style="font-style:normal;font-variant:normal;font-weight:bold;font-stretch:normal;font-family:Comfortaa;-inkscape-font-specification:'Comfortaa Bold';fill:#e59728;fill-opacity:1"
         id="path4143" />
      <path
         d="m -458.27401,616.37263 0,-41.75432 q 0,-1.32172 0.90117,-2.2229 0.93121,-0.93121 2.25293,-0.93121 1.29168,0 2.19286,0.93121 0.93121,0.90118 0.93121,2.2229 l 0,23.43048 17.96337,-11.6852 q 0.75098,-0.48063 1.68219,-0.48063 0.66086,0 1.2316,0.24031 0.57074,0.24032 0.99129,0.6909 0.42055,0.42055 0.66086,0.99129 0.27035,0.57075 0.27035,1.20157 0,1.68219 -1.20156,2.49324 l -12.58638,8.17063 12.91681,14.53892 q 0.87113,0.96125 0.87113,2.19285 0,0.63082 -0.27035,1.20156 -0.24031,0.57074 -0.66086,1.02133 -0.42055,0.42055 -0.99129,0.66086 -0.57074,0.24031 -1.2316,0.24031 -1.26164,0 -2.10274,-0.81105 l -13.87805,-15.59029 -3.66477,2.40313 0,10.84411 q 0,1.29168 -0.93121,2.22289 -0.90118,0.93121 -2.19286,0.93121 -1.32172,0 -2.25293,-0.93121 -0.90117,-0.93121 -0.90117,-2.22289 z"
         style="font-style:normal;font-variant:normal;font-weight:bold;font-stretch:normal;font-family:Comfortaa;-inkscape-font-specification:'Comfortaa Bold';fill:#e59728;fill-opacity:1"
         id="path4145" />
    </g>
    <g
       transform="matrix(0.40579137,0,0,0.40579137,-698.50398,530.33269)"
       id="g5241">
      <path
         inkscape:connector-curvature="0"
         style="font-style:normal;font-variant:normal;font-weight:bold;font-stretch:expanded;font-size:11.72808552px;line-height:89.99999762%;font-family:Comfortaa;-inkscape-font-specification:'Comfortaa Bold Expanded';text-align:start;writing-mode:lr-tb;text-anchor:start;fill:#3c6eb4;fill-opacity:1;stroke:none"
         id="path5239"
         d="m 799.33773,208.89468 0,4.61564 c 0,0.30924 -0.18707,0.49631 -0.5612,0.56121 l -0.0401,0 c -0.31687,0 -0.51158,-0.19661 -0.58411,-0.58984 l 0,-7.3186 c 0.0458,-0.42376 0.22524,-0.63564 0.5383,-0.63565 l 0.0859,0 c 0.31687,10e-6 0.52875,0.22525 0.63565,0.67574 l 2.62851,5.87549 c 0.0344,-0.13362 0.61083,-1.47555 1.72944,-4.0258 l 1.0766,-2.31927 c 0.12979,-0.13743 0.27105,-0.20615 0.42377,-0.20616 l 0.0859,0 c 0.31304,10e-6 0.49248,0.21189 0.5383,0.63565 l 0,7.3186 c -0.0725,0.39323 -0.26725,0.58984 -0.58412,0.58984 l -0.0401,0 c -0.37415,-0.0649 -0.56122,-0.25197 -0.56121,-0.56121 l 0,-4.62136 c -1.4202,3.21453 -2.16275,4.87334 -2.22765,4.97641 -0.15653,0.13744 -0.30924,0.20616 -0.45813,0.20616 -0.33596,0 -0.61275,-0.33978 -0.83036,-1.01933 l -1.85542,-4.15752 m -7.79387,-3.39015 5.3601,0 c 0.36268,0.0687 0.54402,0.2558 0.54402,0.56121 l 0,0.0859 c 0,0.31306 -0.21189,0.49249 -0.63565,0.5383 l -1.99286,0 0,6.82038 c 0,0.30924 -0.19089,0.49631 -0.57266,0.56121 l -0.0286,0 c -0.31688,0 -0.51158,-0.19661 -0.58411,-0.58984 l 0,-6.79175 -2.03867,0 c -0.39323,-0.0763 -0.58985,-0.28251 -0.58985,-0.61847 0.084,-0.37795 0.26343,-0.56693 0.53831,-0.56694" />
      <path
         inkscape:connector-curvature="0"
         style="fill:#294172;fill-opacity:1"
         id="path35"
         d="m 807.77586,159.90439 c 0,-33.08386 -26.81923,-59.90405 -59.90309,-59.90405 -33.06851,0 -59.87718,26.79812 -59.90117,59.86183 l -0.002,-0.002 0,46.35579 0.002,0.002 c 0.0182,7.50719 6.10631,13.58472 13.61831,13.58472 0.0211,0 0.0422,-0.002 0.0643,-0.002 l 0.004,0.002 46.23777,0 0,0 c 33.07426,-0.0134 59.88006,-26.82403 59.88006,-59.89829 z" />
      <path
         inkscape:connector-curvature="0"
         style="fill:#3c6eb4;fill-opacity:1"
         id="path39"
         d="m 765.46056,114.20011 c -15.52773,0 -28.11456,12.58684 -28.11456,28.11456 0,0.006 0,0.0125 0,0.0202 l 0,14.88103 -14.83401,0 c -0.003,0 -0.003,0 -0.005,0 -15.52869,0 -28.11457,12.52542 -28.11457,28.05123 0,15.52773 12.58588,28.11553 28.11457,28.11553 15.52677,0 28.11456,-12.58876 28.11456,-28.11553 0,-0.005 0,-0.0125 0,-0.0182 l 0,-14.94435 14.83305,0 c 0.003,0 0.005,0 0.006,0 15.52677,0 28.11457,-12.4621 28.11457,-27.98983 0,-15.52772 -12.5878,-28.11456 -28.11457,-28.11456 z m -28.1136,71.09192 c -0.0134,8.18365 -6.65324,14.81577 -14.83881,14.81577 -8.19516,0 -14.90021,-6.64459 -14.90021,-14.83976 0,-8.19612 6.70505,-14.9645 14.90021,-14.9645 0.008,0 0.0144,0.002 0.0201,0.002 l 12.71445,0 c 0.004,0 0.007,-0.002 0.01,-0.002 1.15717,0 2.09653,0.93649 2.09653,2.09365 0,9.6e-4 -9.6e-4,0.003 -9.6e-4,0.005 l 0,12.89004 -9.6e-4,0 z m 28.11264,-28.07714 c -0.005,0 -0.01,0 -0.0144,0 l -12.72308,0 c -0.002,0 -0.006,0 -0.006,0 -1.15909,0 -2.09557,-0.9384 -2.09557,-2.09557 l 0,-0.002 0,-12.82767 c 0.0144,-8.18653 6.65228,-14.81578 14.83784,-14.81578 8.19613,0 14.90213,6.64364 14.90213,14.84072 0.002,8.19517 -6.70504,14.90022 -14.90117,14.90022 z" />
      <path
         inkscape:connector-curvature="0"
         style="fill:#ffffff"
         id="path41"
         d="m 737.34696,157.21489 0,-14.88102 c 0,-0.008 0,-0.0144 0,-0.0202 0,-15.52773 12.58683,-28.11457 28.11456,-28.11457 2.35656,0 4.02994,0.26387 6.21186,0.83573 3.17885,0.83286 5.77624,3.43792 5.7772,6.47093 9.6e-4,3.66532 -2.65975,6.32988 -6.63596,6.32988 -1.89503,0 -2.57916,-0.3627 -5.35406,-0.3627 -8.18557,0 -14.82345,6.62925 -14.83784,14.81578 l 0,12.82767 0,0.002 c 0,1.15717 0.93648,2.09557 2.09557,2.09557 0,0 0.004,0 0.006,0 l 9.74382,0 c 3.63174,0 6.56304,2.90539 6.56591,6.54577 0,3.64325 -2.93513,6.54289 -6.56591,6.54289 l -11.84514,0 0,14.94434 c 0,0.006 0,0.0134 0,0.0202 0,15.52581 -12.58779,28.11361 -28.11457,28.11361 -2.35559,0 -4.02993,-0.26578 -6.2109,-0.83573 -3.17885,-0.8319 -5.7772,-3.43888 -5.77816,-6.47093 0,-3.66532 2.65976,-6.33084 6.63693,-6.33084 1.89311,0 2.57915,0.36366 5.35213,0.36366 8.18557,0 14.82537,-6.63021 14.83977,-14.81578 0,0 0,-12.89388 0,-12.89388 0,-1.15525 -0.93936,-2.09173 -2.09653,-2.09173 -0.002,0 -0.003,0 -0.006,0 l -9.74285,-0.002 c -3.63174,0 -6.56688,-2.89771 -6.56688,-6.53905 -0.002,-3.66436 2.96489,-6.5496 6.63597,-6.5496 l 11.77509,0 0,0 z" />
    </g>
  </g>
</svg>
