<?xml version="1.0" encoding="UTF-8" standalone="no"?>
<!-- Created with Inkscape (http://www.inkscape.org/) -->

<svg
   xmlns:dc="http://purl.org/dc/elements/1.1/"
   xmlns:cc="http://creativecommons.org/ns#"
   xmlns:rdf="http://www.w3.org/1999/02/22-rdf-syntax-ns#"
   xmlns:svg="http://www.w3.org/2000/svg"
   xmlns="http://www.w3.org/2000/svg"
   xmlns:sodipodi="http://sodipodi.sourceforge.net/DTD/sodipodi-0.dtd"
   xmlns:inkscape="http://www.inkscape.org/namespaces/inkscape"
   width="192"
   height="192"
   viewBox="0 0 192 192"
   id="svg3355"
   version="1.1"
   inkscape:version="0.91 r13725"
   sodipodi:docname="fedora_icon_scaled.svg">
  <defs
     id="defs3357" />
  <sodipodi:namedview
     id="base"
     pagecolor="#ffffff"
     bordercolor="#666666"
     borderopacity="1.0"
     inkscape:pageopacity="0.0"
     inkscape:pageshadow="2"
     inkscape:zoom="0.7"
     inkscape:cx="76.796267"
     inkscape:cy="146.37599"
     inkscape:document-units="px"
     inkscape:current-layer="layer1"
     showgrid="false"
     fit-margin-top="0"
     fit-margin-left="0"
     fit-margin-right="0"
     fit-margin-bottom="0"
     units="px"
     inkscape:window-width="1920"
     inkscape:window-height="1057"
     inkscape:window-x="-8"
     inkscape:window-y="-8"
     inkscape:window-maximized="1" />
  <metadata
     id="metadata3360">
    <rdf:RDF>
      <cc:Work
         rdf:about="">
        <dc:format>image/svg+xml</dc:format>
        <dc:type
           rdf:resource="http://purl.org/dc/dcmitype/StillImage" />
        <dc:title></dc:title>
      </cc:Work>
    </rdf:RDF>
  </metadata>
  <g
     inkscape:label="Layer 1"
     inkscape:groupmode="layer"
     id="layer1"
     transform="translate(-275.42853,-327.79077)">
    <path
       inkscape:connector-curvature="0"
       d="m 453.90567,502.30918 0,7.39721 c 0,0.4956 -0.29979,0.79541 -0.89937,0.89942 l -0.0643,0 c -0.50781,0 -0.81985,-0.31509 -0.93609,-0.9453 l 0,-11.72908 c 0.0734,-0.67913 0.36097,-1.0187 0.86267,-1.01872 l 0.13766,0 c 0.50782,2e-5 0.84737,0.361 1.0187,1.08297 l 4.21242,9.41629 c 0.0551,-0.21414 0.97891,-2.36477 2.77157,-6.4519 l 1.72536,-3.71696 c 0.208,-0.22025 0.43438,-0.33038 0.67912,-0.3304 l 0.13767,0 c 0.50167,2e-5 0.78924,0.33959 0.86267,1.01872 l 0,11.72908 c -0.11619,0.63021 -0.42829,0.9453 -0.93611,0.9453 l -0.0643,0 c -0.59961,-0.10401 -0.8994,-0.40382 -0.89939,-0.89942 l 0,-7.40637 c -2.276,5.15173 -3.466,7.81021 -3.57,7.97539 -0.25086,0.22027 -0.49559,0.3304 -0.7342,0.3304 -0.53841,0 -0.98199,-0.54454 -1.33073,-1.63362 l -2.97348,-6.66301 m -12.49037,-5.43318 8.59004,0 c 0.58124,0.1101 0.87185,0.40995 0.87185,0.89941 l 0,0.13767 c 0,0.50172 -0.33957,0.78928 -1.01869,0.8627 l -3.19373,0 0,10.93061 c 0,0.4956 -0.30592,0.79541 -0.91775,0.89942 l -0.0458,0 c -0.50783,0 -0.81985,-0.31509 -0.93609,-0.9453 l 0,-10.88473 -3.26715,0 c -0.63018,-0.12228 -0.94529,-0.45276 -0.94529,-0.99118 0.13462,-0.60572 0.42217,-0.90859 0.86269,-0.9086"
       id="path5239"
       style="font-style:normal;font-variant:normal;font-weight:bold;font-stretch:expanded;font-size:11.72808552px;line-height:89.99999762%;font-family:Comfortaa;-inkscape-font-specification:'Comfortaa Bold Expanded';text-align:start;writing-mode:lr-tb;text-anchor:start;fill:#3c6eb4;fill-opacity:1;stroke:none" />
    <path
       inkscape:connector-curvature="0"
       d="m 467.42853,423.7954 c 0,-53.02152 -42.9802,-96.00463 -96.00004,-96.00463 -52.99524,0 -95.95852,42.94774 -95.99696,95.93696 l -0.003,-0.003 0,74.29163 0.003,0.003 c 0.0292,12.03132 9.78591,21.77141 21.82455,21.77141 0.0338,0 0.0676,-0.003 0.10305,-0.003 l 0.006,0.003 74.10015,0 0,0 c 53.00445,-0.0215 95.96313,-42.98926 95.96313,-95.99538 z"
       id="path35"
       style="fill:#294172;fill-opacity:1" />
    <path
       inkscape:connector-curvature="0"
       d="m 399.61449,350.5479 c -24.88457,0 -45.05608,20.17217 -45.05608,45.05751 0,0.01 0,0.02 0,0.0324 l 0,23.84893 -23.77283,0 c -0.005,0 -0.005,0 -0.008,0 -24.8861,0 -45.0561,20.07374 -45.0561,44.95602 0,24.88536 20.17,45.05907 45.0561,45.05907 24.88304,0 45.05609,-20.17525 45.05609,-45.05907 0,-0.008 0,-0.02 0,-0.0292 l 0,-23.95041 23.77129,0 c 0.005,0 0.008,0 0.01,0 24.88304,0 45.05611,-19.97225 45.05611,-44.85761 0,-24.88534 -20.17307,-45.05752 -45.05611,-45.05752 z m -45.05455,113.93474 c -0.0215,13.11544 -10.66241,23.74434 -23.78052,23.74434 -13.13347,0 -23.87891,-10.64888 -23.87891,-23.78279 0,-13.13543 10.74544,-23.9827 23.87891,-23.9827 0.0128,0 0.0231,0.003 0.0322,0.003 l 20.37605,0 c 0.006,0 0.0112,-0.003 0.016,-0.003 1.85446,0 3.35987,1.50085 3.35987,3.35536 0,0.002 -0.002,0.005 -0.002,0.008 l 0,20.65809 -0.002,0 z m 45.05301,-44.99754 c -0.008,0 -0.016,0 -0.0231,0 l -20.38986,0 c -0.003,0 -0.01,0 -0.01,0 -1.85754,0 -3.35834,-1.50392 -3.35834,-3.35845 l 0,-0.003 0,-20.55814 c 0.0231,-13.12006 10.66087,-23.74436 23.77896,-23.74436 13.13503,0 23.882,10.64737 23.882,23.78433 0.003,13.13391 -10.74543,23.87969 -23.88046,23.87969 z"
       id="path39"
       style="fill:#3c6eb4;fill-opacity:1" />
    <path
       inkscape:connector-curvature="0"
       d="m 354.55994,419.4851 0,-23.84892 c 0,-0.0128 0,-0.0231 0,-0.0324 0,-24.88536 20.17152,-45.05753 45.05609,-45.05753 3.77659,0 6.45834,0.42289 9.95506,1.33937 5.09439,1.33478 9.25694,5.50975 9.25847,10.37057 0.002,5.87419 -4.26248,10.14452 -10.63471,10.14452 -3.03695,0 -4.13334,-0.58128 -8.58036,-0.58128 -13.1181,0 -23.7559,10.6243 -23.77896,23.74436 l 0,20.55814 0,0.003 c 0,1.85453 1.5008,3.35845 3.35834,3.35845 0,0 0.006,0 0.01,0 l 15.61534,0 c 5.82019,0 10.51786,4.65629 10.52246,10.49051 0,5.83881 -4.7038,10.48589 -10.52246,10.48589 l -18.98289,0 0,23.9504 c 0,0.01 0,0.0215 0,0.0324 0,24.88228 -20.17305,45.05599 -45.05611,45.05599 -3.77504,0 -6.45831,-0.42595 -9.95351,-1.33937 -5.0944,-1.33324 -9.25849,-5.51129 -9.26003,-10.37057 0,-5.87419 4.26252,-10.14606 10.63628,-10.14606 3.03388,0 4.13332,0.58282 8.57726,0.58282 13.11811,0 23.75899,-10.62584 23.78206,-23.74436 0,0 0,-20.66425 0,-20.66425 0,-1.85145 -1.50541,-3.35229 -3.35987,-3.35229 -0.003,0 -0.005,0 -0.01,0 l -15.61378,-0.003 c -5.8202,0 -10.52402,-4.64399 -10.52402,-10.47974 -0.003,-5.87265 4.7515,-10.49665 10.63474,-10.49665 l 18.87063,0 0,0 z"
       id="path41"
       style="fill:#ffffff" />
  </g>
</svg>
